<?xml version="1.0" standalone="no"?>
<!DOCTYPE svg PUBLIC "-//W3C//DTD SVG 20010904//EN"
 "http://www.w3.org/TR/2001/REC-SVG-20010904/DTD/svg10.dtd">
<svg version="1.0" xmlns="http://www.w3.org/2000/svg"
 width="150.000000pt" height="150.000000pt" viewBox="0 0 150.000000 150.000000"
 preserveAspectRatio="xMidYMid meet">
<metadata>
Created by potrace 1.14, written by Peter Selinger 2001-2017
</metadata>
<g transform="translate(0.000000,150.000000) scale(0.100000,-0.100000)"
fill="#000000" stroke="none">
<path d="M484 1140 c-16 -55 -20 -60 -46 -60 -16 0 -31 7 -34 15 -4 8 -17 15
-31 15 -22 0 -24 3 -19 25 5 21 2 27 -21 37 -35 14 -60 13 -80 -4 -9 -7 -24
-12 -33 -10 -11 2 -25 -10 -39 -33 -27 -46 -26 -51 5 -88 23 -27 24 -32 10
-42 -9 -7 -13 -15 -10 -18 3 -3 0 -15 -6 -27 -11 -20 -13 -19 -51 34 -22 31
-44 56 -48 56 -5 0 -12 -53 -16 -117 -4 -65 -9 -127 -11 -138 -2 -11 -6 -60
-9 -110 -2 -49 -7 -107 -10 -128 -9 -53 12 -56 78 -13 31 19 62 36 70 38 14 3
67 -45 67 -60 0 -4 12 -18 26 -32 24 -22 25 -25 8 -31 -18 -6 -18 -7 1 -10 11
-2 20 -11 21 -19 1 -8 2 -25 2 -37 4 -54 67 -70 106 -28 19 21 25 23 30 10 7
-20 45 -19 53 1 3 8 -1 23 -10 31 -13 13 -19 14 -31 3 -14 -11 -16 -9 -16 9 0
15 12 27 45 42 35 17 45 26 45 46 0 44 18 14 25 -42 5 -37 12 -55 21 -55 8 0
14 8 14 18 0 10 4 22 10 28 16 16 111 206 105 212 -3 3 -13 -2 -22 -10 -27
-23 -47 -26 -60 -9 -7 9 -13 19 -13 23 0 9 30 6 48 -5 6 -5 12 -4 12 1 0 12
-153 73 -162 64 -4 -4 0 -35 10 -70 22 -85 14 -98 -63 -94 -32 2 -80 12 -107
23 -27 10 -60 19 -75 19 -21 0 -24 2 -13 15 7 8 18 15 24 15 6 0 19 7 29 14
14 11 16 18 7 42 -6 16 -15 31 -19 34 -4 3 -27 38 -50 77 -33 55 -42 79 -37
98 6 24 8 24 22 10 13 -12 19 -13 30 -4 20 16 17 28 -7 37 -19 7 -19 9 -4 22
12 10 19 10 27 2 17 -17 33 -15 19 2 -9 11 -3 15 34 20 26 4 58 18 75 33 17
14 33 23 36 21 3 -3 -2 -25 -10 -49 -15 -43 -20 -79 -12 -79 12 0 172 62 182
71 10 8 9 16 -2 37 -7 15 -29 62 -48 105 -19 42 -39 77 -44 77 -6 0 -18 -27
-28 -60z"/>
<path d="M140 1005 c0 -10 7 -15 18 -13 21 4 19 22 -2 26 -10 2 -16 -3 -16
-13z"/>
<path d="M325 950 c-3 -5 1 -10 9 -10 9 0 16 -4 16 -10 0 -13 21 -13 40 0 13
9 13 11 0 20 -20 13 -57 13 -65 0z"/>
<path d="M296 895 c-6 -17 2 -45 15 -45 4 0 9 -21 11 -47 3 -51 16 -60 35 -23
l11 23 4 -22 c5 -33 22 -26 29 11 l6 33 2 -33 1 -33 165 2 c91 1 168 5 170 10
3 4 7 26 9 48 2 28 -1 42 -11 45 -26 10 -41 6 -47 -11 -3 -10 -4 -6 -2 9 2 15
0 32 -4 39 -9 14 -30 3 -30 -16 0 -15 -31 -29 -39 -18 -9 13 -41 12 -42 -1 0
-6 -4 0 -10 12 -8 22 -32 28 -29 7 4 -28 -86 -24 -107 4 -10 14 -12 14 -18 -1
-4 -10 -14 -18 -23 -18 -8 0 -12 3 -9 7 11 10 -26 32 -54 33 -15 0 -29 -7 -33
-15z"/>
<path d="M787 903 c-11 -10 -8 -143 3 -143 5 0 0 -19 -12 -41 -18 -35 -20 -47
-11 -80 9 -36 8 -40 -15 -55 -14 -9 -36 -16 -49 -16 -20 0 -35 -17 -15 -19 4
0 24 -2 45 -4 23 -3 37 0 37 7 0 9 3 9 11 1 15 -15 3 -65 -21 -91 -11 -12 -20
-26 -20 -32 0 -17 27 -11 33 8 5 14 20 42 45 81 1 3 29 -23 61 -57 32 -34 63
-62 69 -62 21 0 21 30 -1 41 -24 13 -87 77 -87 89 0 15 14 19 27 9 7 -6 24 -9
37 -7 21 4 26 1 29 -21 l4 -26 2 27 c0 18 -7 33 -24 46 -13 11 -21 22 -18 26
3 3 2 6 -3 6 -6 0 -15 -5 -21 -11 -6 -6 -16 -8 -23 -4 -19 11 28 38 69 39 25
1 36 6 36 16 0 16 -17 17 -80 5 l-40 -8 24 27 c14 14 34 26 47 26 25 0 49 24
39 40 -5 8 -14 6 -31 -4 -29 -20 -44 -20 -44 -1 0 23 -35 18 -69 -11 -34 -28
-43 -16 -11 16 22 22 26 40 10 40 -17 0 -11 37 6 44 19 7 18 8 32 -20 11 -20
18 -22 86 -19 73 3 74 3 79 -24 3 -15 24 -49 46 -76 22 -27 38 -52 35 -57 -3
-4 -17 -8 -32 -8 -15 -1 -54 -7 -87 -14 -68 -14 -61 -20 49 -35 75 -11 92 -19
58 -28 -12 -3 -22 -13 -22 -22 0 -10 -15 -42 -34 -73 -40 -66 -29 -67 57 -1
32 24 62 41 66 39 5 -3 14 -34 20 -68 16 -82 21 -98 31 -98 11 0 21 28 27 75
3 22 10 52 17 68 l11 27 47 -44 c51 -47 86 -63 94 -41 7 17 -27 84 -55 109
-41 37 -19 55 64 56 22 0 47 5 55 10 12 7 7 12 -22 25 -21 8 -41 15 -45 15
-19 0 -83 22 -83 28 0 4 21 29 45 56 25 27 45 55 45 63 0 8 -3 12 -7 10 -5 -2
-37 -21 -72 -42 -73 -44 -77 -42 -87 48 -5 41 -12 62 -25 70 -11 7 -19 17 -19
24 0 15 -35 26 -60 18 -26 -8 -60 3 -57 18 1 8 -16 13 -49 15 -44 3 -52 0 -57
-17 -3 -14 -11 -18 -26 -14 -12 3 -21 1 -21 -5 0 -13 -62 8 -73 26 -8 13 -59
17 -70 5z m368 -133 c30 0 34 -7 28 -47 -7 -43 -28 -42 -76 2 -39 36 -42 57
-7 48 13 -3 20 0 21 8 0 10 2 11 6 2 2 -7 15 -13 28 -13z"/>
<path d="M335 631 c-9 -16 3 -31 26 -31 14 0 19 6 17 17 -4 20 -33 29 -43 14z"/>
<path d="M1030 526 c0 -9 5 -16 10 -16 6 0 10 4 10 9 0 6 -4 13 -10 16 -5 3
-10 -1 -10 -9z"/>
<path d="M1030 490 c0 -5 5 -10 10 -10 6 0 10 5 10 10 0 6 -4 10 -10 10 -5 0
-10 -4 -10 -10z"/>
<path d="M213 483 c-23 -9 -14 -33 12 -33 23 0 24 2 15 20 -6 11 -12 20 -13
19 -1 0 -8 -3 -14 -6z"/>
<path d="M135 290 c3 -5 8 -10 11 -10 2 0 4 5 4 10 0 6 -5 10 -11 10 -5 0 -7
-4 -4 -10z"/>
</g>
</svg>
